<svg id="Layer_1" enable-background="new 0 0 50 50" height="512" viewBox="0 0 50 50" width="512" xmlns="http://www.w3.org/2000/svg"><g><path d="m48 20.04c.276 0 .5-.224.5-.5v-9.54c0-.276-.224-.5-.5-.5h-46c-.276 0-.5.224-.5.5v9.54c0 .276.224.5.5.5 2.735 0 4.96 2.225 4.96 4.96s-2.225 4.96-4.96 4.96c-.276 0-.5.224-.5.5v9.54c0 .276.224.5.5.5h46c.276 0 .5-.224.5-.5v-9.54c0-.276-.224-.5-.5-.5-2.735 0-4.96-2.225-4.96-4.96s2.225-4.96 4.96-4.96zm-5.96 4.96c0 3.118 2.407 5.685 5.46 5.939v8.561h-33.286v-1.5c0-.276-.224-.5-.5-.5s-.5.224-.5.5v1.5h-10.714v-8.561c3.053-.254 5.46-2.821 5.46-5.939s-2.407-5.685-5.46-5.939v-8.561h10.714v1.5c0 .276.224.5.5.5s.5-.224.5-.5v-1.5h33.286v8.561c-3.053.254-5.46 2.821-5.46 5.939z"/><path d="m13.714 30.071c-.276 0-.5.224-.5.5v3.714c0 .276.224.5.5.5s.5-.224.5-.5v-3.714c0-.276-.223-.5-.5-.5z"/><path d="m13.714 15.214c-.276 0-.5.224-.5.5v3.714c0 .276.224.5.5.5s.5-.224.5-.5v-3.714c0-.276-.223-.5-.5-.5z"/><path d="m13.714 22.643c-.276 0-.5.224-.5.5v3.714c0 .276.224.5.5.5s.5-.224.5-.5v-3.714c0-.276-.223-.5-.5-.5z"/></g></svg>