<svg enable-background="new 0 0 64 64" height="512" viewBox="0 0 64 64" width="512" xmlns="http://www.w3.org/2000/svg"><g id="_x31_3-Gift"><path d="m55.9298706 18.8538818c-.012207-.0326538-.0274658-.0617676-.0429077-.0927124-.0388794-.078186-.086853-.1490479-.1446533-.2146606-.0205688-.0233154-.0376587-.0476685-.0603027-.0689697-.0806885-.0761719-.1707153-.1432495-.2757568-.1899414l-6.4030762-2.84552c.5521851-.7727661.9234009-1.6697388.9870605-2.7150269.1523438-2.5214844-1.5136719-4.722168-4.1464844-5.4760742-2.0449219-.5859375-4.3486328-.1274414-6.6601563 1.3261719-.7097168.4468384-1.4047241.9849854-2.0733643 1.5799561l-4.7039794-2.0906983c-.2583008-.1147461-.5527344-.1157227-.8125 0l-4.6884155 2.0836792c-2.0900269-1.8374634-4.5108643-3.1500855-6.9448853-3.1500855-.6157227 0-1.2231445.0844727-1.8046875.2509766-2.6333008.7539063-4.2993164 2.9545898-4.1459961 5.4765625.0637817 1.0450439.4349365 1.9418335.9870605 2.7145386l-6.4030762 2.84552c-.1048584.0466919-.1947632.1137085-.2754517.1898193-.0227051.0213623-.039856.0458374-.0605469.0692749-.0576782.0654907-.1057129.1362915-.1445313.2143555-.0154419.0310059-.0307007.0601196-.0429688.0928955-.0413816.1102905-.0702512.225708-.0702512.3477173v26.5766602c0 .3950195.2329102.753418.59375.9135742l23 10.2216797c.0147095.0065918.0311279.0039673.0460205.0097656.116272.0453491.2366943.0766601.3602295.0766601s.2439575-.031311.3602295-.0766602c.0148926-.0057983.031311-.0031738.0460205-.0097656l23-10.2216797c.3613281-.1601562.59375-.5185547.59375-.9135742v-26.5766601c0-.1220704-.0288086-.2374268-.0701294-.3477784zm-24.9298706 11.2196656v24.3878784l-10-4.4442749v-24.3878174zm1-1.744812-9.5036011-4.2234497 7.9020386-3.4329224c.015625-.0067749.0251465-.0205688.0402832-.0280762.3518677.0256348.7064209.053772 1.0559082.0783691 0 0 .5126343.0322266.5229492.0322266.0307617 0 .4868164-.0317383.4868164-.0317383.3499146-.0247192.7050171-.0528564 1.057312-.0785522.0150146.0073853.024353.0210571.039856.027771l7.9020996 3.4329834zm11.9845581-5.3259278-6.3230591-2.7468872c1.4129028-.1758423 2.8256226-.4037476 4.2193604-.753479 1.3627319-.3417969 3.7792358-1.1089478 5.6240845-2.5370483l5.0331421 2.2362671zm-3.7355347-12.7327881c1.34375-.8461914 2.6103516-1.2709961 3.7832031-1.2709961.4335938 0 .8544922.0581055 1.2607422.1748047 1.4228516.4072266 2.8105469 1.6264648 2.7011719 3.4316406-.1513672 2.4726563-3.5078125 4.1821289-6.5996094 4.9575195-2.6015625.6523438-5.3388672.8979492-8.0195313 1.0927734.9892579-2.5390624 3.6425782-6.3515624 6.8740235-8.3857421zm-8.2490234-.1958007 3.5817261 1.5918579c-1.4894409 1.6272583-2.7478638 3.4755249-3.5733032 5.1530762-.8094482-1.6757202-2.0513306-3.5258179-3.5601807-5.1661377zm-13.293457-.9003907c.4023437-.1152343.8242187-.1738281 1.2539062-.1738281 4.3134766 0 9.234375 5.8945313 10.6733398 9.6567383-2.6835938-.1953125-5.4238281-.4404297-8.0283203-1.09375-3.0913086-.7753906-6.4487305-2.4848633-6.5996094-4.9570313-.1093749-1.8051757 1.2773438-3.0249023 2.7006837-3.4321289zm-2.2114868 7.791626c1.8446655 1.4280396 4.2610474 2.1951904 5.6240845 2.5369873 1.3937378.3497925 2.8063965.5777588 4.2192993.75354l-6.322876 2.7467651-8.5531616-3.8010864zm-6.4950562 3.7752075 9 3.9998169v24.3878174l-9-3.9998779zm23 9.3328858 10-4.4442139v24.3878174l-10 4.4442749zm12 19.0547485v-24.3878174l9-3.9998169v24.3877564z"/></g></svg>